<svg width="23" height="23" viewBox="0 0 23 23" fill="none" xmlns="http://www.w3.org/2000/svg">
<g clip-path="url(#clip0_2589_46081)">
<path d="M14.951 1.98276C16.0645 1.98276 16.9755 2.875 16.9755 3.96552V19.0345C16.9755 20.125 16.0645 21.0172 14.951 21.0172H4.04901C2.93554 21.0172 2.02451 20.125 2.02451 19.0345V3.96552C2.02451 2.875 2.93554 1.98276 4.04901 1.98276H14.951ZM14.951 0H4.04901C1.81193 0 0 1.77457 0 3.96552V19.0345C0 21.2254 1.81193 23 4.04901 23H14.951C17.1881 23 19 21.2254 19 19.0345V3.96552C19 1.77457 17.1881 0 14.951 0Z" fill="#1A8F84"/>
<path d="M10.87 4.22021H3.48V5.70021H10.87V4.22021Z" fill="#1A8F84"/>
<path d="M15.3 13.0801H3.48V14.5601H15.3V13.0801Z" fill="#1A8F84"/>
<path d="M15.3 15.29H3.48V16.77H15.3V15.29Z" fill="#1A8F84"/>
<path d="M15.3 17.5098H3.48V18.9898H15.3V17.5098Z" fill="#1A8F84"/>
<path d="M14.5 22.0052C10.9091 22.0052 7.99469 19.0908 7.99469 15.4999C7.99469 11.9091 10.9091 8.99463 14.5 8.99463C18.0908 8.99463 21.0053 11.9091 21.0053 15.4999C21.0053 19.0908 18.0908 22.0052 14.5 22.0052Z" fill="white"/>
<path d="M14.5 9.98939C17.5438 9.98939 20.0106 12.4562 20.0106 15.5C20.0106 18.5438 17.5438 21.0106 14.5 21.0106C11.4562 21.0106 8.98939 18.5438 8.98939 15.5C8.98939 12.4562 11.4562 9.98939 14.5 9.98939ZM14.5 8C10.3621 8 7 11.3621 7 15.5C7 19.6379 10.3621 23 14.5 23C18.6379 23 22 19.6379 22 15.5C22 11.3621 18.6379 8 14.5 8Z" fill="#1A8F84"/>
<path d="M18.32 13L13.29 18.03L11 15.74" stroke="#1A8F84" stroke-width="1.5" stroke-linecap="round" stroke-linejoin="round"/>
</g>
<defs>
<clipPath id="clip0_2589_46081">
<rect width="23" height="23" fill="white"/>
</clipPath>
</defs>
</svg>
